<svg width="2500" height="2222" viewBox="0 0 2500 2222" fill="none" xmlns="http://www.w3.org/2000/svg">
<path d="M1250.54 21.313C1185.35 21.313 1155.68 52.3249 1122.56 106.926C1113.75 121.472 1104.57 138.057 1094.49 155.822L1083.37 174.887C1083.34 174.938 1083.4 175.017 1083.37 175.068L80.8853 1911.54L37.2822 1986.92C9.63702 2039.1 0.000165939 2079.03 31.1081 2132.9C63.0069 2188.16 103.531 2198.96 165.086 2200.69H2335.64C2397.3 2198.98 2437.87 2188.2 2469.8 2132.9C2500 2080.6 2492.06 2041.48 2466.27 1991.51L2465.39 1989.92L2420.02 1911.54L1417.53 175.068C1415.43 171.407 1413.73 168.193 1411.71 164.651L1380.46 110.457L1378.87 107.983C1345.5 52.7429 1316.14 21.313 1250.54 21.313Z" fill="black"/>
<path d="M1242.22 96.5097C1226.89 97.148 1222.29 100.142 1215.75 104.983C1208.74 110.168 1198.28 122.472 1184.85 143.999L1154.85 195.895L1143.72 214.959L270.978 1726.89L270.809 1727.07L258.98 1747.73L226.324 1804.04L226.144 1804.21C225.946 1804.6 225.816 1804.89 225.618 1805.27C215.394 1825.35 211.807 1837.95 211.316 1845.69C210.813 1853.62 211.112 1860.12 221.032 1877.29C231.476 1895.39 236.605 1898.38 244.683 1902.01C252.755 1905.64 266.629 1908.84 293.754 1909.6H2204.99C2232.12 1908.85 2245.99 1905.64 2254.06 1902.01C2262.14 1898.38 2267.27 1895.39 2277.72 1877.29C2287.63 1860.12 2287.93 1853.62 2287.43 1845.69C2286.94 1838.02 2283.32 1825.56 2273.31 1805.8L2272.42 1804.03L2227.94 1727.07L2227.77 1726.9L1354.84 214.779L1314.24 144.344C1300.73 122.641 1290.15 110.202 1283.17 104.977C1275.68 99.368 1270.91 96.504 1249.46 96.504C1246.79 96.504 1244.41 96.4137 1242.22 96.504L1242.22 96.5097Z" fill="#1D427C"/>
<path d="M1248.93 1178.61C802.559 1178.61 426.716 1472.89 316.35 1872.18H2181.52C2071.15 1472.89 1695.3 1178.61 1248.93 1178.61Z" fill="white" fill-opacity="0.733"/>
<path d="M1248.93 1259.11C818.67 1259.11 455.079 1517.88 338.945 1872.18H2158.92C2042.78 1517.88 1679.18 1259.11 1248.93 1259.11Z" fill="black"/>
<path fill-rule="evenodd" clip-rule="evenodd" d="M1251.67 286.981C1253.56 856.555 1308.59 1620.23 1518.13 1861.05H985.382C1194.92 1620.23 1249.77 856.555 1251.67 286.981Z" fill="#FF0000"/>
<path fill-rule="evenodd" clip-rule="evenodd" d="M1251.72 286.981C1252.51 856.555 1275.52 1620.23 1363.15 1861.05H1140.36C1227.98 1620.23 1250.92 856.555 1251.71 286.981H1251.72Z" fill="white"/>
<path d="M1251.75 304.894C1223.56 474.154 1251.69 445.792 1082.29 474.358C1251.34 502.5 1223.2 474.482 1251.75 643.822C1279.95 474.567 1251.82 502.929 1421.21 474.358C1252.17 446.221 1280.31 474.239 1251.75 304.894ZM1101.68 768.864C1090.13 838.191 1101.65 826.577 1032.27 838.276C1101.51 849.799 1089.98 838.327 1101.68 907.688C1113.23 838.361 1101.7 849.975 1171.09 838.276C1101.85 826.752 1113.37 838.225 1101.68 768.864ZM1420.47 939.542C1408.92 1008.87 1420.45 997.25 1351.06 1008.95C1420.3 1020.48 1408.78 1009.01 1420.47 1078.37C1432.02 1009.04 1420.5 1020.65 1489.88 1008.95C1420.64 997.431 1432.17 1008.9 1420.47 939.542ZM1500.92 645.369C1492.76 694.412 1500.91 686.193 1451.83 694.469C1500.8 702.626 1492.65 694.508 1500.92 743.568C1509.09 694.531 1500.94 702.744 1550.02 694.469C1501.04 686.318 1509.2 694.435 1500.92 645.369H1500.92ZM1377.46 591.271C1369.3 640.308 1377.44 632.095 1328.37 640.37C1377.34 648.521 1369.19 640.404 1377.46 689.47C1385.63 640.427 1377.48 648.646 1426.56 640.37C1377.58 632.213 1385.73 640.331 1377.46 591.271ZM1143.02 569.077C1134.85 618.114 1143.01 609.895 1093.92 618.176C1142.9 626.327 1134.75 618.21 1143.02 667.27C1151.19 618.238 1143.05 626.452 1192.12 618.176C1143.15 610.019 1151.3 618.137 1143.02 569.077ZM1641.03 964.43C1632.86 1013.47 1641.02 1005.25 1591.93 1013.53C1640.91 1021.68 1632.76 1013.56 1641.03 1062.63C1649.2 1013.59 1641.05 1021.81 1690.13 1013.53C1641.16 1005.37 1649.31 1013.49 1641.03 964.43ZM1580 1069.86C1571.83 1118.89 1579.98 1110.68 1530.9 1118.95C1579.87 1127.11 1571.72 1118.99 1580 1168.05C1588.16 1119.02 1580.01 1127.23 1629.1 1118.95C1580.12 1110.8 1588.27 1118.92 1580 1069.86ZM890.555 1039.34C882.387 1088.38 890.533 1080.16 841.456 1088.44C890.431 1096.59 882.28 1088.47 890.555 1137.54C898.723 1088.5 890.572 1096.71 939.649 1088.44C890.674 1080.28 898.825 1088.4 890.555 1039.34ZM786.516 988.014C778.342 1037.05 786.493 1028.83 737.416 1037.11C786.391 1045.26 778.24 1037.15 786.51 1086.21C794.678 1037.17 786.533 1045.39 835.609 1037.11C786.634 1028.96 794.785 1037.07 786.51 988.014H786.516ZM746.285 1151.71C738.117 1200.74 746.268 1192.52 697.186 1200.8C746.161 1208.96 738.009 1200.84 746.285 1249.9C754.453 1200.86 746.302 1209.08 795.384 1200.8C746.404 1192.65 754.555 1200.76 746.285 1151.71Z" fill="white"/>
<path d="M689.576 1973.99L639.126 2102H608.479L664.351 1960.55C670.245 1945.7 681.089 1940.04 697.827 1940.04C714.33 1940.04 725.174 1945.7 730.832 1960.55L784.582 2102H753.699L705.371 1973.99C703.957 1970.22 701.364 1968.57 697.592 1968.57C693.82 1968.57 691.226 1970.22 689.576 1973.99ZM905.924 1942.87H939.871L988.671 2001.57L1039.83 1942.87H1074.25L1006.12 2021.14L1074.72 2102H1040.77L987.964 2038.82L933.742 2102H899.323L970.518 2019.02L905.924 1942.87ZM1199.72 1942.87H1227.54V2102H1199.72V1942.87ZM1433.41 1942.87H1455.1C1501.3 1942.87 1527 1969.27 1527 2022.79C1527 2076.07 1501.54 2102 1455.1 2102H1433.41C1386.97 2102 1361.5 2076.07 1361.5 2022.79C1361.5 1969.27 1387.2 1942.87 1433.41 1942.87ZM1455.1 1970.69H1433.41C1402.76 1970.69 1389.32 1986.25 1389.32 2022.79C1389.32 2059.09 1402.52 2074.18 1433.41 2074.18H1455.1C1485.74 2074.18 1498.95 2059.09 1498.95 2022.55C1498.95 1986.25 1485.74 1970.69 1455.1 1970.69ZM1714.5 1973.75L1666.88 2102H1637.17L1686.45 1969.51C1692.57 1951.36 1702.71 1940.04 1723.93 1940.04C1747.5 1940.04 1759.29 1953.95 1759.29 1974.7V2068.76C1759.29 2074.18 1762.59 2077.72 1767.31 2077.72C1771.55 2077.72 1774.85 2075.12 1776.26 2071.12L1814.93 1969.51C1821.06 1951.36 1831.19 1940.04 1852.41 1940.04C1875.99 1940.04 1887.77 1953.95 1887.77 1974.7V2102H1859.72V1976.11C1859.72 1970.45 1856.42 1966.92 1851.7 1966.92C1847.7 1966.92 1844.4 1969.75 1842.98 1973.75L1804.32 2075.36C1798.19 2093.51 1787.82 2104.83 1766.6 2104.83C1743.26 2104.83 1731.47 2090.92 1731.47 2069.94V1976.11C1731.47 1970.45 1727.94 1966.92 1723.22 1966.92C1718.98 1966.92 1716.15 1969.75 1714.5 1973.75Z" fill="white"/>
</svg>
