<svg width="2409" height="2409" viewBox="0 0 2409 2409" fill="none" xmlns="http://www.w3.org/2000/svg">
<path d="M2408.05 1204.67C2408.2 1869.71 1869.22 2408.85 1204.34 2409C539.322 2409.15 0.197806 1870.15 0.0527636 1205.25C0.0527636 1205.11 0.0527636 1204.96 0.0527636 1204.67C-0.0922791 539.633 538.887 0.492489 1203.76 0.347441C1868.78 0.202394 2407.91 539.198 2408.05 1204.09C2408.05 1204.38 2408.05 1204.53 2408.05 1204.67Z" fill="#AEB0B5"/>
<path d="M1892.27 2094.31C1700.75 2238.78 1466.36 2318.65 1224.33 2321.93C982.314 2325.22 745.74 2251.73 550.179 2112.52L1208.8 1231.02L1892.27 2094.31Z" fill="#FFDD02"/>
<path d="M1711.99 2206.81C1698.51 2207.82 1679.07 2212.03 1667.47 2207.39C1637.3 2195.35 1644.98 2176.93 1627.29 2156.04C1609.59 2135.15 1606.4 2152.41 1596.83 2123.84C1587.26 2095.26 1595.96 2068.43 1588.85 2041.89C1581.6 2015.34 1570.72 2034.2 1567.97 2017.81C1565.21 2001.27 1585.66 2008.96 1577.54 1976.04C1569.56 1943.11 1535.77 1886.11 1535.77 1886.11L1307.61 1895.68C1307.61 1895.68 1255.83 1929.04 1243.36 1964.72C1230.89 2000.4 1264.25 2010.12 1257.86 2038.55C1251.48 2067.13 1226.1 2050.59 1217.69 2078.73C1209.28 2106.87 1233.79 2119.34 1224.07 2150.96C1214.5 2182.73 1192.74 2181.86 1179.11 2205.65C1165.47 2229.29 1169.53 2245.82 1169.53 2245.82C1169.53 2245.82 1153.87 2275.56 1147.05 2271.5C1140.24 2267.44 1147.05 2244.52 1142.27 2229.72C1137.48 2214.93 1129.36 2231.32 1127.76 2212.03C1126.17 2192.74 1139.36 2176.35 1135.74 2152.56C1132.11 2128.92 1113.69 2134.43 1113.26 2117.17C1112.82 2099.91 1130.95 2098.31 1134.14 2083.37C1137.33 2068.58 1127.33 2075.39 1126.17 2057.7C1125.01 2040 1139.8 2044.06 1129.36 2012.73C1118.91 1981.4 1084.39 1932.38 1084.39 1932.38L923.686 1908.3L881.914 1962.98C856.677 1981.11 831.004 1998.81 843.333 2054.51C815.485 2066.4 791.117 2083.37 788.652 2133.27C779.949 2141.97 771.392 2151.11 770.956 2176.64C768.636 2206.23 747.895 2212.61 732.375 2221.46C354.104 2043.34 89.4004 1656.21 89.4004 1207.58C89.4004 590.545 590.088 89.8425 1207.1 89.8425C1824.11 89.8425 2324.8 590.545 2324.8 1207.58C2325.09 1643.3 2075.62 2022.31 1711.99 2206.81Z" fill="#1D427C"/>
<path d="M2118.8 1855.57C2069.34 1925.19 2012.34 1989.01 1948.66 2045.58C1599.98 1844.11 793.397 1613.05 147.956 1566.2C109.955 1453.79 89.3584 1333.4 89.3584 1208.22C89.3584 928.574 192.194 672.856 362.039 476.752C1045.77 894.633 1642.19 1392.72 2118.8 1855.57Z" fill="#99231B" fill-opacity="0.84"/>
<path d="M2118.51 1855.86C2085.29 1908.37 2046.71 1949.71 2006.39 1991.34C1421.29 1507.75 163.766 1332.82 86.6035 1209.39C86.6035 929.735 191.904 673.146 361.894 477.188C1045.48 894.924 1641.75 1393.02 2118.51 1855.86Z" fill="#4AA564"/>
<path d="M169.276 792.81C215.835 676.482 281.54 569.872 362.184 476.752C1045.92 894.633 1642.19 1392.72 2118.94 1855.57C2101.83 1879.79 2083.7 1903.29 2064.7 1926.06C1560.96 1516.74 886.368 1106.55 169.276 792.81Z" fill="#2E86AB"/>
<path d="M2027.13 1968.71C2014.08 1982.92 2000.59 1996.7 1986.66 2010.19C1507.59 1741.13 490.258 1332.24 95.7412 1328.32C91.535 1288.87 89.3584 1248.84 89.3584 1208.23C89.3584 1162.97 92.1149 1118.44 97.3365 1074.64C820.085 1249.27 1446.23 1629.59 2027.13 1968.71Z" fill="#E96A27"/>
<path fill-rule="evenodd" clip-rule="evenodd" d="M1069.89 1817.06L1272.22 1794.58L1278.61 1617.91L1036.09 1624.3L1069.89 1817.06Z" fill="#C2CEDD" stroke="black" stroke-width="0.2986"/>
<path fill-rule="evenodd" clip-rule="evenodd" d="M885.684 1546.12L1019.7 1432.54C1037.83 1417.75 1041.31 1398.75 1044.65 1378.01L1134.43 955.483C1144.15 922.412 1165.33 899.785 1188.97 888.471L1116.3 1292.86L1084.54 1439.36L885.684 1546.12Z" fill="#FFFFFD" stroke="black" stroke-width="0.2986"/>
<path fill-rule="evenodd" clip-rule="evenodd" d="M885.25 1546.7L1019.27 1433.12C1037.4 1418.33 1040.88 1399.33 1044.22 1378.59L1134 956.063C1141.69 929.52 1156.91 909.793 1174.76 897.174C1149.23 945.04 1088.16 1265.16 1057.13 1450.38L885.25 1546.7Z" fill="#C2CEDD"/>
<path d="M1141.54 937.498C1154.74 935.032 1167.5 934.742 1179.69 938.658" stroke="black" stroke-width="2"/>
<path d="M1124.28 1002.91C1137.33 993.195 1154.16 993.92 1169.24 994.5" stroke="black" stroke-width="2"/>
<path d="M1108.62 1078.05C1125.01 1068.33 1138.35 1069.35 1152.85 1070.8" stroke="black" stroke-width="2"/>
<path d="M1090.92 1160.29C1104.84 1146.08 1123.26 1148.54 1139.07 1146.22" stroke="black" stroke-width="2"/>
<path d="M1072.5 1244.27C1087.58 1229.48 1106.73 1230.49 1121.52 1229.04" stroke="black" stroke-width="2"/>
<path d="M1052.34 1338.7C1066.26 1321.15 1082.94 1323.18 1097.74 1321.87" stroke="black" stroke-width="2"/>
<path d="M1032.32 1417.75C1045.96 1392.36 1067.86 1386.56 1086.57 1375.25" stroke="black" stroke-width="2"/>
<path d="M885.25 1546.7L1019.27 1433.12C1037.4 1418.33 1040.88 1399.33 1044.22 1378.59L1134 956.063C1143.72 922.993 1164.89 900.365 1188.53 889.052L1115.87 1293.44L1084.1 1439.94L885.25 1546.7Z" stroke="black" stroke-width="2"/>
<path fill-rule="evenodd" clip-rule="evenodd" d="M1168.66 974.484L1179.98 873.242C1192.16 775.335 1279.33 701.796 1302.83 702.086C1328.93 700.635 1364.03 772.579 1379.99 824.216L1368.68 1249.06L1179.98 1244.27L1168.66 974.484Z" fill="#E46725" stroke="black"/>
<path fill-rule="evenodd" clip-rule="evenodd" d="M1342.13 888.471C1349.1 862.217 1368.1 836.834 1381.44 828.276C1395.37 834.368 1415.09 857.141 1425.68 889.341L1474.7 1381.78C1423.94 1344.64 1359.1 1330.14 1334.16 1243.69L1342.13 888.471Z" fill="#FFFFFD" stroke="black" stroke-width="2"/>
<path fill-rule="evenodd" clip-rule="evenodd" d="M1365.34 1304.76C1352.14 1289.24 1341.26 1269.8 1333.72 1243.98L1341.7 888.907C1348.66 862.653 1367.66 837.27 1381.01 828.712L1381.44 829.872C1379.12 850.759 1374.91 873.532 1374.48 892.533L1365.34 1304.76Z" fill="#C2CEDD"/>
<path d="M1343 897.318C1371.72 873.53 1398.7 880.348 1425.39 894.852" stroke="black" stroke-width="2"/>
<path d="M1339.81 956.788C1365.49 938.802 1393.04 927.198 1431.33 954.757" stroke="black" stroke-width="2"/>
<path d="M1339.38 1039.03C1376.65 1002.48 1418.57 1019.16 1438.59 1035.84" stroke="black" stroke-width="2"/>
<path d="M1336.62 1118.23C1369.26 1093.42 1408.13 1086.32 1448.3 1117.07" stroke="black" stroke-width="2"/>
<path d="M1335.75 1200.61C1371 1178.86 1407.69 1163.63 1456.57 1206.27" stroke="black" stroke-width="2"/>
<path d="M1348.66 1278.07C1394.49 1257.18 1434.82 1277.05 1465.57 1293.73" stroke="black" stroke-width="2"/>
<path d="M1341.7 888.616C1348.66 862.362 1367.66 836.979 1381.01 828.421C1394.93 834.513 1414.66 857.286 1425.24 889.486L1473.11 1380.18C1422.34 1343.05 1359.25 1328.54 1334.3 1242.1L1341.7 888.616Z" stroke="black" stroke-width="2"/>
<path fill-rule="evenodd" clip-rule="evenodd" d="M955.6 1766.4L938.195 1842.12L873.796 1955.25C960.531 1946.99 1047.27 1950.03 1133.86 1993.84L1099.63 1859.96L1084.83 1757.26L955.6 1766.4Z" fill="#FFFFFD" stroke="black" stroke-width="2"/>
<path fill-rule="evenodd" clip-rule="evenodd" d="M1113.96 1918.52L1099.16 1860.79L1084.37 1758.09L971.958 1766.22C1036.36 1792.33 1066.96 1867.32 1113.96 1918.52Z" fill="#C2CEDD"/>
<path d="M935.842 1844.98C983.996 1830.47 1031.57 1822.21 1099.31 1862.24" stroke="black" stroke-width="2"/>
<path d="M955.568 1766.22L938.163 1841.93L873.764 1955.07C960.499 1946.8 1047.23 1949.85 1133.83 1993.65L1099.6 1859.77L1084.8 1757.08L955.568 1766.22Z" stroke="black" stroke-width="2"/>
<path fill-rule="evenodd" clip-rule="evenodd" d="M1322.84 1717.42L1318.78 1813.87L1260.18 1940.79C1371.29 1901.92 1473.83 1908.73 1574.2 1927.15L1508.35 1792.26L1505.16 1625.17L1321.97 1660.56L1322.84 1717.42Z" fill="#FFFFFD" stroke="black" stroke-width="2"/>
<path fill-rule="evenodd" clip-rule="evenodd" d="M1323.28 1716.98L1319.22 1813.44L1260.62 1940.35C1299.64 1926.72 1337.64 1918.6 1374.91 1914.83C1396.23 1856.23 1363.16 1731.05 1507.19 1703.06L1505.74 1624.73L1322.55 1660.12L1323.28 1716.98Z" fill="#C2CEDD"/>
<path d="M1318.06 1813.87C1379.99 1775 1443.52 1777.9 1507.63 1792.11" stroke="black" stroke-width="2"/>
<path d="M1322.55 1716.26L1318.49 1812.71L1259.89 1939.63C1371 1900.76 1473.54 1907.57 1573.91 1925.99L1508.06 1791.1L1504.87 1624.01L1321.68 1659.4L1322.55 1716.26Z" stroke="black" stroke-width="2"/>
<path d="M1086.86 1785.3C1085.99 1790.52 1066.99 1791.82 1044.51 1788.2C1022.02 1784.57 1004.33 1777.32 1005.2 1772.1L1006.36 1763.97L1006.94 1762.81C1011.73 1717.41 1058.58 1737 1091.07 1734.39C1093.53 1750.78 1097.59 1768.33 1086.86 1785.3Z" fill="#010300" stroke="black" stroke-width="0.2986"/>
<path d="M1086.86 1785.3C1085.99 1790.52 1066.99 1791.82 1044.51 1788.2C1021.88 1784.57 1004.33 1777.32 1005.2 1772.1C1006.07 1766.88 1025.07 1765.57 1047.55 1769.2C1070.03 1772.82 1087.73 1780.08 1086.86 1785.3Z" fill="#FFFFFD" stroke="black" stroke-width="0.2986"/>
<path fill-rule="evenodd" clip-rule="evenodd" d="M1271.64 1670.71L1649.33 1598.48L1632.07 1482.29L1464.26 1374.81C1437.14 1355.23 1341.7 1320.42 1331.84 1226.87L1303.7 995.226C1295.57 922.702 1277.01 877.157 1262.21 878.463C1243.07 870.92 1173.59 940.543 1162.43 995.516L1075.54 1408.46C1069.31 1431.09 1055.67 1438.63 1023.91 1457.49L744.267 1639.82L702.06 1761.94L1023.76 1685.36L1271.64 1670.71Z" fill="#FFFFFD" stroke="black" stroke-width="9"/>
<path d="M1248.15 1764.12C1248.58 1771.81 1227.26 1779.35 1200.28 1780.95C1173.45 1782.54 1151.26 1777.61 1150.82 1769.92C1140.38 1737.43 1146.91 1704.36 1155.03 1672.16L1215.8 1668.53C1235.38 1697.98 1246.7 1729.74 1248.15 1764.12Z" fill="#FFFFFD" stroke="black" stroke-width="0.2986"/>
<path d="M1273.82 1473.88L1285.42 1239.63M1273.82 1473.59C1232.92 1427.18 1187.81 1409.63 1133.85 1453.86L1114.42 1596.88C1155.9 1577.59 1199.41 1578.75 1245.83 1609.65L1243.94 1652.87L1264.1 1677.09L1273.82 1473.59Z" stroke="black" stroke-width="2"/>
<path d="M769.215 1745.55L792.422 1673.32L1022.17 1575.27L994.611 1691.45" stroke="black" stroke-width="3"/>
<path d="M1142.41 1740.62C1141.11 1751.94 1111.95 1757.88 1077.43 1753.82C1042.91 1749.76 1015.93 1737.43 1017.24 1726.12C1019.85 1697.98 1027.68 1665.34 1047.99 1635.61C1065.68 1606.89 1118.19 1622.12 1128.92 1645.33C1139.65 1668.53 1146.04 1708.13 1142.41 1740.62Z" fill="#C2CEDD" stroke="black" stroke-width="0.2986"/>
<path fill-rule="evenodd" clip-rule="evenodd" d="M852.18 1725.83L833.76 1777.61L1027.39 1762.38L1026.23 1684.49L852.18 1725.83Z" fill="#FFFFFD" stroke="black" stroke-width="0.2986"/>
<path d="M1077.43 1754.26C1042.91 1750.2 1015.93 1737.87 1017.24 1726.55C1019.85 1698.41 1027.68 1665.78 1047.99 1636.04C1058.43 1619.07 1080.91 1617.33 1099.91 1623.57L1100.64 1623.86C1061.04 1687.39 1076.13 1716.25 1077.43 1754.26Z" fill="#010300" stroke="black" stroke-width="0.2986"/>
<path d="M1142.41 1740.62C1141.1 1751.94 1112.1 1757.88 1077.58 1753.97C1043.06 1750.05 1016.08 1737.58 1017.38 1726.26C1018.69 1714.95 1047.7 1709 1082.22 1712.92C1116.74 1716.83 1143.72 1729.31 1142.41 1740.62Z" fill="#FFFFFD" stroke="black" stroke-width="0.2986"/>
<path fill-rule="evenodd" clip-rule="evenodd" d="M1114.42 1595.72C1155.9 1576.43 1197.96 1577.59 1244.38 1608.49L1242.49 1651.71L1262.65 1675.93L1262.94 1693.05L1143.43 1693.92C1137.91 1659.83 1128.63 1634.45 1111.66 1627.63L1114.42 1595.72Z" fill="#C2CEDD" stroke="black" stroke-width="0.2986"/>
<path d="M1200.28 1781.38C1173.45 1782.98 1151.26 1778.05 1150.82 1770.36C1140.38 1737.87 1148.5 1702.48 1156.62 1670.13L1184.18 1670.86C1178.67 1727.86 1183.02 1766.73 1200.28 1781.38Z" fill="#010300" stroke="black" stroke-width="0.2986"/>
<path d="M1248.15 1764.12C1248.58 1771.81 1227.26 1779.35 1200.28 1780.95C1173.45 1782.54 1151.26 1777.61 1150.82 1769.92C1150.39 1762.24 1171.71 1754.69 1198.69 1753.1C1225.66 1751.5 1247.71 1756.43 1248.15 1764.12Z" fill="#FFFFFD" stroke="black" stroke-width="0.2986"/>
<path d="M1212.61 1672.16C1212.61 1676.66 1200.14 1680.43 1184.62 1680.43C1169.1 1680.43 1156.62 1676.8 1156.62 1672.16C1157.93 1657.8 1155.9 1645.91 1163.15 1627.2C1171.71 1604.57 1197.24 1614.58 1201.44 1626.62C1208.55 1642.86 1210 1657.37 1212.61 1672.16Z" fill="#C2CEDD" stroke="black" stroke-width="0.2986"/>
<path d="M1184.76 1680.43C1169.39 1680.43 1156.77 1676.8 1156.77 1672.16C1158.07 1657.8 1156.04 1645.91 1163.3 1627.2C1167.79 1615.3 1177.08 1612.4 1185.34 1614.14L1190.42 1616.46C1180.12 1636.77 1185.78 1658.96 1184.76 1680.43Z" fill="#010300" stroke="black" stroke-width="0.2986"/>
<path d="M1212.32 1671.87C1212.32 1676.37 1199.85 1680.14 1184.33 1680.14C1168.81 1680.14 1156.33 1676.51 1156.33 1671.87C1156.33 1667.37 1168.81 1663.6 1184.33 1663.6C1199.85 1663.6 1212.32 1667.23 1212.32 1671.87Z" fill="#FFFFFD" stroke="black" stroke-width="0.2986"/>
<path d="M1114.71 1607.61L1159.67 1633.72" stroke="black" stroke-width="0.2986"/>
<path d="M1210.58 1653.89L1241.33 1653.31" stroke="black" stroke-width="0.2986"/>
<path fill-rule="evenodd" clip-rule="evenodd" d="M1262.51 888.005C1243.36 880.463 1175.48 948.49 1164.31 1003.46L1077.43 1416.41L1135.88 1416.85L1208.26 991.714C1215.66 952.261 1230.02 914.404 1262.51 888.005Z" fill="#C2CEDD"/>
<path fill-rule="evenodd" clip-rule="evenodd" d="M1183.75 948.231L1191.72 934.887L1241.04 935.467C1255.54 935.757 1258.88 945.765 1262.36 955.483L1255.11 964.041C1251.05 954.178 1248.29 949.101 1233.79 948.811L1184.47 948.231" fill="black"/>
<path d="M1183.75 948.231L1191.72 934.887L1241.04 935.467C1255.54 935.757 1258.88 945.765 1262.36 955.483L1255.11 964.041C1251.05 954.178 1248.29 949.101 1233.79 948.811L1184.47 948.231" stroke="black" stroke-width="0.2986"/>
<path d="M1161.85 994.5L1237.85 992.035C1248.58 991.164 1255.83 994.646 1258.59 1003.64" stroke="black" stroke-width="2"/>
<path d="M1075.26 1408.75L1222.62 1410.93L1263.96 1029.89" stroke="black" stroke-width="2"/>
<path fill-rule="evenodd" clip-rule="evenodd" d="M1278.31 1669.69L1275.12 1732.65L1448.89 1692.18L1447.87 1636.91L1278.31 1669.69Z" fill="#FFFFFD" stroke="black" stroke-width="0.2986"/>
<path fill-rule="evenodd" clip-rule="evenodd" d="M1462.66 1633.58L1464.4 1687.83L1635.56 1651.71L1629.75 1602.83L1462.66 1633.58Z" fill="#FFFFFD" stroke="black" stroke-width="0.2986"/>
<path fill-rule="evenodd" clip-rule="evenodd" d="M1135.74 1454.88L1117.03 1592.24C1132.26 1586.87 1147.05 1582.38 1160.98 1581.07L1177.22 1432.54C1161.12 1437.04 1148.07 1445.02 1135.74 1454.88Z" fill="#C2CEDD"/>
<path fill-rule="evenodd" clip-rule="evenodd" d="M1053.5 1626.33L1077.14 1410.79L1177.08 1412.09L1176.79 1428.34C1158.36 1434.28 1145.31 1441.1 1131.97 1453.14C1124.28 1511.45 1115.87 1567.73 1109.78 1625.31C1094.98 1617.33 1070.76 1613.27 1053.5 1626.33Z" fill="#C2CEDD"/>
<path d="M997.077 1679.7L1085.84 1583.83" stroke="black" stroke-width="0.2986"/>
<path d="M750.504 666.984L730.923 559.65L620.11 522.808L727.442 503.226L764.283 392.41L783.864 499.745L894.676 536.587L787.345 556.168L750.504 666.984Z" fill="#FFDD00" stroke="#FFDD00" stroke-width="0.2986"/>
<path d="M1161.7 598.812L1142.12 491.477L1031.31 454.635L1138.64 435.054L1175.48 324.238L1195.06 431.573L1305.87 468.415L1198.54 487.996L1161.7 598.812Z" fill="#FFDD00" stroke="#FFDD00" stroke-width="0.2986"/>
<path d="M1947.83 1568.89L1932.6 1474.9L1838.03 1445.16L1932.02 1429.93L1961.75 1335.36L1976.98 1429.35L2071.55 1459.09L1977.56 1474.32L1947.83 1568.89Z" fill="#FFDD00" stroke="#FFDD00" stroke-width="0.2986"/>
<path d="M1737.81 1205.26L1725.19 1110.83L1631.49 1078.48L1725.92 1065.87L1758.26 972.165L1770.88 1066.59L1864.58 1098.94L1770.15 1111.55L1737.81 1205.26Z" fill="#FFDD00" stroke="#FFDD00" stroke-width="0.2986"/>
<path d="M1553.46 1095.6L1541.13 987.104L1433.08 943.01L1541.57 930.681L1585.66 822.621L1597.99 931.116L1706.05 975.21L1597.55 987.539L1553.46 1095.6Z" fill="#FFDD00" stroke="#FFDD00" stroke-width="0.2986"/>
<path d="M1682.26 786.648L1669.64 678.152L1561.44 634.348L1669.93 621.729L1713.73 513.524L1726.35 622.019L1834.55 665.823L1726.06 678.443L1682.26 786.648Z" fill="#FFDD00" stroke="#FFDD00" stroke-width="0.2986"/>
<path fill-rule="evenodd" clip-rule="evenodd" d="M867.553 2281.22C916.723 2306.6 1034.64 2320.96 1087.58 2326.18C1103.68 2323.42 1079.9 2312.55 1079.61 2302.1C1079.17 2291.66 1085.26 2302.54 1085.99 2284.41C1086.86 2266.28 1090.77 2255.54 1082.8 2229.72C1074.82 2204.05 1061.04 2201.15 1053.93 2181.57C1046.68 2161.84 1059.59 2162.71 1053.93 2151.11C1048.28 2139.5 1035.8 2148.64 1031.45 2135.01C1027.1 2121.37 1038.7 2112.53 1036.24 2096.43C1033.77 2080.33 1032.18 2084.82 1021.73 2070.75C1011.29 2056.68 1008.53 2041.02 994.466 2040.29C980.396 2039.42 987.213 2037.83 965.602 2067.56C943.846 2097.3 922.234 2121.81 907.73 2159.09C893.226 2196.36 917.738 2186.35 907.73 2216.96C897.722 2247.56 846.667 2242.78 867.553 2281.22Z" fill="#FF8800"/>
<path fill-rule="evenodd" clip-rule="evenodd" d="M1270.63 2329.51C1335.75 2335.17 1443.37 2315.44 1501.97 2299.05C1517.2 2272.95 1507.19 2279.04 1505.16 2263.66C1503.13 2248.43 1495.59 2252.06 1493.85 2237.99C1492.25 2223.92 1506.76 2230.3 1498.63 2207.53C1490.66 2184.61 1468.47 2173.73 1461.65 2146.47C1454.83 2119.2 1477.31 2120.36 1471.22 2098.31C1465.13 2076.26 1458.02 2083.08 1437.43 2058.13C1416.98 2033.18 1408.85 2002.29 1389.27 1998.66C1369.55 1995.04 1374.77 2024.34 1358.81 2043.63C1342.71 2062.92 1333.58 2057.7 1325.02 2075.83C1316.61 2093.96 1333 2099.9 1325.02 2116.01C1317.04 2132.11 1300.94 2118.47 1292.82 2140.08C1284.7 2161.7 1305.73 2168.66 1292.82 2202.74C1279.91 2236.83 1246.99 2244.95 1241.47 2276.57C1236.11 2308.19 1242.63 2307.76 1270.63 2329.51Z" fill="#FF8800"/>
<path d="M572.247 1857.53L557.017 1763.54L462.449 1733.81L556.437 1718.58L586.171 1624.01L601.4 1718L695.968 1747.73L601.98 1762.96L572.247 1857.53Z" fill="#FFDD00" stroke="#FFDD00" stroke-width="0.2986"/>
<mask id="mask0_204_23" style="mask-type:alpha" maskUnits="userSpaceOnUse" x="0" y="0" width="2409" height="2409">
<path d="M2408.05 1204.67C2408.2 1869.71 1869.22 2408.85 1204.34 2409C539.322 2409.15 0.197806 1870.15 0.0527636 1205.25C0.0527636 1205.11 0.0527636 1204.96 0.0527636 1204.67C-0.0922791 539.633 538.886 0.492489 1203.76 0.347441C1868.78 0.202394 2407.91 539.197 2408.05 1204.09C2408.05 1204.38 2408.05 1204.53 2408.05 1204.67Z" fill="#FFDD02"/>
</mask>
<g mask="url(#mask0_204_23)">
<ellipse cx="2145.97" cy="22.4452" rx="680.115" ry="645.745" fill="#D9D9D9"/>
</g>
<path d="M1929.25 523.737C1928.58 519.508 1928.42 516.858 1929.78 512.783C1934.8 506.565 1940.67 505.049 1948.31 504.145C1952.48 504.051 1956.51 504.327 1960.65 504.819C1961.91 504.958 1961.91 504.958 1963.19 505.1C1970.43 505.989 1977.17 507.679 1984.12 509.893C1985.18 510.227 1986.24 510.562 1987.34 510.908C2015.15 519.841 2052.57 537.298 2066.76 564.824C2070.99 575.642 2070.99 575.642 2069.87 580.339C2066.71 584.819 2064.78 587.337 2059.77 589.61C2037.96 593.259 2018.12 587.183 1997.89 579.62C1996.52 579.119 1995.15 578.617 1993.74 578.1C1969 568.39 1938.51 549.962 1929.25 523.737Z" fill="#6C7376"/>
<path d="M2034.86 402.795C2035.05 395.991 2036.24 391.485 2041.16 386.627C2048.28 381.099 2056.97 381.444 2065.59 382.351C2079.1 384.826 2091.22 390.962 2100.21 401.304C2101.72 403.04 2101.72 403.04 2103.26 404.811C2107.82 410.097 2112.35 415.402 2116.88 420.718C2119.26 423.522 2121.67 426.31 2124.09 429.084C2127.03 432.446 2129.93 435.834 2132.81 439.242C2133.91 440.532 2135.02 441.812 2136.14 443.082C2144.82 452.938 2144.82 452.938 2145.4 458.416C2144.6 464.13 2142.68 468.375 2138.41 472.322C2131.29 477.373 2122.62 477.24 2114.28 476.182C2081.81 468.606 2038.07 439.331 2034.86 402.795Z" fill="#6B7377"/>
<path d="M1826.22 209.564C1822.61 197.213 1822.61 197.213 1824.13 191.412C1826.23 188.031 1826.23 188.031 1828.79 184.511C1829.64 183.336 1830.49 182.161 1831.36 180.951C1832.34 179.616 1832.34 179.616 1833.34 178.253C1845 186.136 1856.63 194.063 1868.22 202.046C1873.6 205.752 1878.99 209.442 1884.4 213.097C1889.63 216.626 1894.83 220.193 1900.01 223.79C1901.99 225.154 1903.98 226.505 1905.98 227.841C1908.78 229.716 1911.55 231.638 1914.31 233.575C1915.56 234.387 1915.56 234.387 1916.84 235.216C1919.17 236.9 1920.81 238.226 1922.41 240.622C1923.25 246.701 1922.55 252.729 1918.96 257.812C1914.57 263.34 1909.86 265.251 1902.97 266.23C1870.1 268.696 1837 238.728 1826.22 209.564Z" fill="#6C7477"/>
<path d="M1836.12 567.061C1834.46 565.951 1834.46 565.951 1832.78 564.819C1824.27 558.92 1814.03 550.868 1811.38 540.314C1811.99 537.157 1811.99 537.157 1813.91 534.545C1825 530.253 1835.68 534.866 1846.13 539.288C1860.49 545.916 1879.62 556.629 1885.92 571.861C1886.66 574.451 1886.66 574.451 1887.3 578.386C1885.32 581.201 1883.59 582.557 1880.21 583.274C1863.42 584.488 1849.41 576.275 1836.12 567.061Z" fill="#6C7376"/>
<path d="M1809.36 405.474C1808.68 402.397 1808.54 399.946 1808.59 396.769C1808.52 395.908 1808.52 395.908 1808.44 395.029C1810.88 391.343 1812.53 389.6 1816.71 388.056C1830.66 387.195 1841.85 394.863 1852 403.644C1858.38 410.068 1863.06 417.859 1863.86 427.017C1862.85 431.234 1860.74 433.333 1857.66 436.33C1838.4 441.208 1815.85 422.569 1809.36 405.474Z" fill="#6B7376"/>
<path d="M1565.91 269.931C1562.17 260.223 1559.32 247.195 1562.67 237.071C1564.55 234.178 1565.62 232.618 1568.99 231.69C1575.58 232.128 1580.69 238.551 1585.11 243.001C1595.19 255.63 1604.16 274.255 1602.65 290.818C1601.57 295.403 1599.81 297.675 1596.31 300.785C1581.8 302.543 1571.14 280.863 1565.91 269.931Z" fill="#6B7276"/>
<path d="M1623.74 109.746C1622.86 109.416 1621.98 109.086 1621.08 108.746C1604.01 101.971 1589.3 87.6535 1581.04 71.2737C1578.4 64.0829 1578.4 64.0829 1579.78 60.2942C1623.68 73.829 1623.68 73.829 1635.19 92.2978C1635.96 93.5086 1636.74 94.7194 1637.54 95.967C1639.53 99.4561 1640.38 102.121 1640.67 106.129C1639.49 108.868 1638.3 109.999 1635.92 111.748C1631.48 113.024 1627.9 111.324 1623.74 109.746Z" fill="#6A7275"/>
<path d="M1678.59 307.582C1676.98 303.097 1676.23 299.588 1678.21 295.062C1682.22 292.468 1685.16 293.425 1689.71 294.33C1699.52 298.208 1707.09 306.817 1711.79 316.08C1713.25 320.228 1713.25 320.228 1713.34 323.837C1711.53 327.559 1711.53 327.559 1709.52 330.311C1695.15 328.943 1684.95 320.602 1678.59 307.582Z" fill="#6B7376"/>
<path d="M2097.14 561.14C2095.89 560.12 2094.65 559.101 2093.36 558.051C2090.47 555.036 2090.47 555.036 2089.7 552.187C2090.01 549.813 2090.01 549.813 2091.94 547.506C2096.06 545.254 2098.17 545.361 2102.84 546.06C2111.43 548.711 2119.11 553.095 2125.1 559.9C2126.52 564.324 2126.52 564.324 2126.65 567.657C2124.4 569.594 2123.06 570.603 2120.06 570.861C2118.76 570.733 2118.76 570.733 2117.43 570.602C2116.56 570.532 2115.7 570.461 2114.81 570.389C2107.63 568.978 2102.71 565.788 2097.14 561.14Z" fill="#6A7275"/>
<path d="M2225.79 595.247C2225 593.884 2224.2 592.521 2223.39 591.117C2221.64 587.424 2221.64 587.424 2222.02 583.012C2225.92 581.2 2225.92 581.2 2230.31 579.622C2235.38 581.992 2236.89 585.305 2239.48 589.936C2240.2 591.189 2240.2 591.189 2240.93 592.466C2242.45 595.132 2243.96 597.807 2245.47 600.483C2246.5 602.292 2247.53 604.102 2248.56 605.911C2251.09 610.344 2253.6 614.786 2256.11 619.232C2251.03 617.446 2246.88 615.573 2242.52 612.491C2241.53 611.798 2240.53 611.105 2239.51 610.391C2233.48 605.867 2229.54 601.806 2225.79 595.247Z" fill="#6A7175"/>
<path d="M1491.21 59.2055C1480.43 56.57 1472.41 47.9138 1466.66 38.7898C1465.57 35.5415 1466.21 33.5027 1467.22 30.284C1478.63 31.911 1486.01 35.6982 1493.21 44.8018C1495.86 48.7116 1497.48 51.5235 1498 56.254C1496.96 60.7356 1495.99 59.7462 1491.21 59.2055Z" fill="#6A7175"/>
<path d="M2120.59 628.706C2120.29 625.224 2120.29 625.224 2121.54 622.648C2125.24 619.711 2127.92 619.813 2132.55 619.968C2140.65 621.025 2147.46 624.36 2153.18 630.24C2153.48 633.722 2153.48 633.722 2151.41 636.425C2146.03 639.647 2141.48 638.917 2135.43 637.933C2129.17 636.212 2125.21 633.137 2120.59 628.706Z" fill="#6A7275"/>
<path d="M1703.97 449.639C1703.27 449.064 1702.56 448.489 1701.83 447.896C1697.3 444.052 1694.69 440.695 1692.87 434.878C1693.78 432.112 1693.78 432.112 1695.1 430.297C1704.96 431.582 1711.23 436.116 1718.16 443.191C1720.16 446.565 1721.3 449.577 1722.55 453.331C1721.5 454.581 1720.45 455.83 1719.37 457.117C1712.63 457.258 1708.8 453.822 1703.97 449.639Z" fill="#6B7276"/>
<path d="M392.34 638.478L322.92 758.717L296.35 743.377L366.55 621.786C377.99 601.972 396.918 595.187 420.561 608.837C441.726 621.057 444.943 637.325 441.238 658.303L429.566 780.96C429.287 785.603 430.655 789.995 435.608 792.855C441.237 796.105 446.565 794.677 449.555 789.498L518.975 669.259L545.769 684.729L475.7 806.094C464.13 826.134 444.976 832.789 421.559 819.269C400.393 807.049 396.951 790.651 400.656 769.673L412.328 647.016C412.902 641.343 411.37 637.756 406.641 635.026C400.562 631.516 395.46 633.074 392.34 638.478ZM618.882 766.57L500.106 861.016L470.835 844.116L602.199 739.826C616.018 728.89 629.496 729.466 645.482 738.696C661.244 747.797 668.482 759.181 665.696 776.486L639.034 941.226L609.537 924.196L633.968 775.281C634.697 770.898 633.13 767.892 629.527 765.812C625.925 763.732 622.538 763.878 618.882 766.57ZM789.645 825.532L866.652 869.992L851.312 896.562L773.405 851.582C759.67 843.652 749.3 847.572 743.19 858.155C737.86 867.387 737.519 878.899 755.307 889.169L790.883 909.709C832.314 933.629 828.736 962.186 816.126 984.027C801.306 1009.7 776.651 1020.68 741.975 1000.66L657.313 951.78L672.653 925.21L758.216 974.61C772.627 982.93 783.707 978.82 790.076 967.786C795.796 957.879 795.818 945.882 777.129 935.092L741.778 914.682C701.248 891.282 704.921 863.08 717.141 841.915C731.701 816.696 755.871 806.032 789.645 825.532ZM953.773 959.921L834.997 1054.37L805.726 1037.47L937.09 933.176C950.909 922.241 964.386 922.817 980.373 932.047C996.135 941.147 1003.37 952.531 1000.59 969.837L973.925 1134.58L944.428 1117.55L968.859 968.631C969.588 964.248 968.021 961.242 964.418 959.162C960.815 957.082 957.429 957.228 953.773 959.921Z" fill="white"/>
<path d="M220.355 1168.05L236.334 1172.39C270.376 1181.65 284.016 1206.26 273.289 1245.68C262.61 1284.94 238.654 1298.94 204.438 1289.63L188.458 1285.28C154.242 1275.97 140.682 1251.77 151.361 1212.51C162.088 1173.09 186.312 1158.78 220.355 1168.05ZM230.758 1192.89L214.779 1188.54C192.199 1182.4 179.181 1191.17 171.856 1218.09C164.579 1244.84 171.281 1258.6 194.034 1264.79L210.014 1269.14C232.593 1275.28 245.344 1266.81 252.668 1239.89C259.945 1213.14 253.337 1199.03 230.758 1192.89ZM392.255 1199.52L410.839 1204.57L385.748 1296.8C378.565 1323.2 363.258 1332.84 341.373 1326.89L316.015 1319.99C291.525 1313.32 280.305 1294.23 288.716 1263.31C297.127 1232.4 316.475 1221.62 340.965 1228.28L381.434 1239.29L392.255 1199.52ZM340.856 1307.53C355.619 1311.55 363.147 1306.51 367.4 1290.88L376.614 1257.01L337.882 1246.47C322.076 1242.17 312.687 1248.57 307.3 1268.37C301.913 1288.17 306.814 1298.27 322.619 1302.57L340.856 1307.53ZM502.548 1272.24L522.174 1277.58L431.974 1391.08L412.174 1385.7L440.285 1350.25C429.863 1347.42 427.114 1343.12 426.161 1334.28L416.399 1248.8L435.852 1254.1L444.898 1329.87C445.216 1333.5 445.942 1334.26 449.416 1335.2L451.848 1335.86L502.548 1272.24ZM561.403 1288.25L612.293 1302.1L607.473 1319.82L556.757 1306.02C548.246 1303.7 543.827 1306.23 541.937 1313.18C540.189 1319.6 542.023 1323.83 552.27 1326.62L573.808 1332.48C599.166 1339.38 602.426 1352.77 598.551 1367.01C594.11 1383.34 582.48 1392.48 560.943 1386.62L507.621 1372.12L512.488 1354.23L565.81 1368.73C574.321 1371.05 578.598 1369.04 580.535 1361.92C582.52 1354.63 579.502 1350.63 570.297 1348.13L548.586 1342.22C523.228 1335.32 520.424 1320.94 524.252 1306.87C528.741 1290.37 540.04 1282.44 561.403 1288.25ZM663.173 1315.94L714.063 1329.79L709.243 1347.5L658.526 1333.71C650.016 1331.39 645.597 1333.92 643.707 1340.87C641.958 1347.29 643.792 1351.52 654.04 1354.31L675.577 1360.17C700.935 1367.07 704.196 1380.45 700.321 1394.7C695.879 1411.02 684.25 1420.17 662.713 1414.31L609.391 1399.8L614.258 1381.91L667.58 1396.42C676.09 1398.74 680.367 1396.73 682.305 1389.61C684.289 1382.31 681.272 1378.32 672.066 1375.82L650.355 1369.91C624.997 1363.01 622.194 1348.63 626.021 1334.56C630.511 1318.06 641.809 1310.13 663.173 1315.94ZM769.458 1344.86L799.158 1352.94C820.869 1358.85 827.239 1371.77 822.42 1389.49C817.836 1406.34 806.726 1413.57 784.147 1407.43L740.552 1395.57L738.756 1402.17C736.771 1409.46 739.301 1415.93 749.375 1418.68L805.476 1433.94L800.609 1451.83L744.508 1436.57C721.582 1430.33 716.047 1415.02 720.772 1397.65L729.278 1366.39C734.003 1349.02 746.531 1338.62 769.458 1344.86ZM747.12 1371.43L744.474 1381.15L787.548 1392.87C797.448 1395.57 802.23 1392.39 804.073 1385.62C805.963 1378.67 803.197 1373.07 794.165 1370.61L764.638 1362.57C754.564 1359.83 749.057 1364.31 747.12 1371.43ZM928.962 1388.25L948.589 1393.59L858.389 1507.1L838.588 1501.71L866.699 1466.26C856.278 1463.43 853.528 1459.14 852.575 1450.3L842.813 1364.82L862.266 1370.11L871.312 1445.88C871.63 1449.51 872.357 1450.27 875.83 1451.21L878.262 1451.88L928.962 1388.25Z" fill="white"/>
</svg>
